<svg id="Layer_1" data-name="Layer 1" xmlns="http://www.w3.org/2000/svg" viewBox="0 0 1116 150"><title>logo_b</title><path d="M439.65,93A22.49,22.49,0,1,0,448,110.5,22.38,22.38,0,0,0,439.65,93ZM425.5,98.47a12,12,0,1,1-4.23.77A11.89,11.89,0,0,1,425.5,98.47Z"/><path d="M48.5,56h-.41a22.49,22.49,0,0,0,0,45h.41a22.5,22.5,0,0,0,0-45Zm0,34.53h-.41a12,12,0,0,1,0-24h.41a12,12,0,0,1,0,24.06Z"/><path d="M324.33,67.18a22.51,22.51,0,1,0,.55,23.74,22.49,22.49,0,0,0-.55-23.74ZM305.5,91.53a12,12,0,1,1,12-12A12,12,0,0,1,305.5,91.53Z"/><path d="M843.5,62A22.51,22.51,0,1,0,866,84.5,22.5,22.5,0,0,0,843.5,62Zm8,31.48a12,12,0,0,1-16.45-.41,11.78,11.78,0,0,1-1.64-2,12,12,0,1,1,20.18,0A11.83,11.83,0,0,1,851.5,93.48Z"/><path d="M1055.32,38A22.5,22.5,0,1,0,1057,46.5,22.5,22.5,0,0,0,1055.32,38ZM1034.5,58.53a11.88,11.88,0,0,1-3.44-.5,12,12,0,1,1,6.66.06A11.86,11.86,0,0,1,1034.5,58.53Z"/><path d="M685.78,68.74A22.5,22.5,0,1,0,659,100a22.19,22.19,0,0,0,6.51,1,22.51,22.51,0,0,0,20.28-32.26ZM665.5,90.53a12,12,0,1,1,12-12A12,12,0,0,1,665.5,90.53Z"/><path d="M48.09,36.26V66.48h.41a12,12,0,0,1,0,24.06h-.41v30.59H75.85V36.26Zm77.4,24.61a35.66,35.66,0,0,0-9.33-13.34,42.19,42.19,0,0,0-14.85-8.36,62.76,62.76,0,0,0-19.88-2.91H66.52v23h13.7a42.89,42.89,0,0,1,7.15.61A17.57,17.57,0,0,1,94,62.44a13.9,13.9,0,0,1,4.91,5.82q1.89,3.88,1.88,10.42T98.94,89.11A13.78,13.78,0,0,1,94,94.93a17.57,17.57,0,0,1-6.66,2.54,42.89,42.89,0,0,1-7.15.61H66.52v23H81.43a62.76,62.76,0,0,0,19.88-2.91,42.19,42.19,0,0,0,14.85-8.36,35.66,35.66,0,0,0,9.33-13.34,46.86,46.86,0,0,0,3.21-17.82A46.84,46.84,0,0,0,125.49,60.87Z"/><path d="M278,79.9a29.94,29.94,0,0,0-6.84-5.76,47.06,47.06,0,0,0-9.1-4.3q-3.75-1.34-7-2.43c-2.18-.73-4.1-1.45-5.75-2.18a13.48,13.48,0,0,1-3.94-2.48,4.47,4.47,0,0,1-1.46-3.34,3.23,3.23,0,0,1,.79-2.3,4.78,4.78,0,0,1,2.24-1.27,11.43,11.43,0,0,1,3.28-.43,14.37,14.37,0,0,1,4.72.85,18.09,18.09,0,0,1,4.79,2.61,17.83,17.83,0,0,1,4.3,4.78l19.76-10.9A36.1,36.1,0,0,0,277.06,44a35.48,35.48,0,0,0-11.27-7.27,41.85,41.85,0,0,0-16.42-2.91,44,44,0,0,0-16.25,2.91,27.42,27.42,0,0,0-11.87,8.6,22,22,0,0,0-4.49,14.06,24.7,24.7,0,0,0,2.36,11.15,27.33,27.33,0,0,0,5.94,8,35.6,35.6,0,0,0,7.52,5.34c2.62,1.37,4.95,2.46,7,3.27q6.91,2.67,10.3,4.24a16,16,0,0,1,4.55,2.79,4.11,4.11,0,0,1,1.15,2.91,4.68,4.68,0,0,1-1,3,5.51,5.51,0,0,1-2.67,1.76,12.76,12.76,0,0,1-3.88.54,18.85,18.85,0,0,1-7.45-1.57,22.15,22.15,0,0,1-6.85-4.67,33.14,33.14,0,0,1-5.57-7.33L210.22,102a35.48,35.48,0,0,0,8.6,11.63,41.62,41.62,0,0,0,13.52,8.19,47.44,47.44,0,0,0,16.91,3A44.91,44.91,0,0,0,262,122.93a36.43,36.43,0,0,0,11.09-5.34,25.36,25.36,0,0,0,10.73-21.33,26.65,26.65,0,0,0-1.45-9A22.72,22.72,0,0,0,278,79.9Z"/><path d="M324.33,67.18a15.8,15.8,0,0,1,3-3.28,21,21,0,0,1,6.91-3.7,27.14,27.14,0,0,1,8.42-1.27,31.84,31.84,0,0,1,10.42,1.51,29.37,29.37,0,0,1,7.7,3.94,59.13,59.13,0,0,1,6,5V42A50.17,50.17,0,0,0,356,36.14q-5.88-2.31-15.21-2.3A61.14,61.14,0,0,0,320.64,37a43.58,43.58,0,0,0-15.52,9.09,40.81,40.81,0,0,0-9.5,13.2c-.15.32-.29.65-.43,1a46.43,46.43,0,0,0-3.52,18.42,46.41,46.41,0,0,0,3.52,18.43c.45,1.06.93,2.08,1.46,3.08a40.51,40.51,0,0,0,8.47,11.1,43.58,43.58,0,0,0,15.52,9.09,61.14,61.14,0,0,0,20.12,3.15q9.33,0,15.21-2.36a56.33,56.33,0,0,0,10.85-5.76V88a55.11,55.11,0,0,1-6,4.91,32,32,0,0,1-7.7,3.94,30.72,30.72,0,0,1-10.42,1.57,27.14,27.14,0,0,1-8.42-1.27,21,21,0,0,1-6.91-3.7,15.41,15.41,0,0,1-2.49-2.55,17.23,17.23,0,0,1-2.18-3.63,20.7,20.7,0,0,1-1.7-8.61A20.59,20.59,0,0,1,322.7,70,17.49,17.49,0,0,1,324.33,67.18ZM305.5,91.53a12,12,0,1,1,12-12A12,12,0,0,1,305.5,91.53Z"/><path d="M468.76,60.26a41,41,0,0,0-9.94-14.18,44.25,44.25,0,0,0-15-9.09A54.28,54.28,0,0,0,425,33.84,53.51,53.51,0,0,0,406.46,37a44.25,44.25,0,0,0-15,9.09,42.25,42.25,0,0,0-10.06,14.18,45.1,45.1,0,0,0-3.64,18.42,48.64,48.64,0,0,0,3.45,18.61,42.7,42.7,0,0,0,24.62,24.07l.11,0a56.23,56.23,0,0,0,38.18,0c.47-.18.93-.37,1.39-.57a42.66,42.66,0,0,0,13.58-8.94,43.09,43.09,0,0,0,9.76-14.61,48.64,48.64,0,0,0,3.46-18.61A46.6,46.6,0,0,0,468.76,60.26Zm-26,27A18.14,18.14,0,0,1,439.65,93c-.2.26-.42.52-.65.77a17.53,17.53,0,0,1-9.6,5.34,12,12,0,1,1-8.13.12A17.59,17.59,0,0,1,417,98a17.4,17.4,0,0,1-6-4.24l-.23-.27a17.93,17.93,0,0,1-3.52-6.28,29.16,29.16,0,0,1,0-17.09A18,18,0,0,1,411,63.59a17.4,17.4,0,0,1,6-4.24,20.06,20.06,0,0,1,8-1.51,20.73,20.73,0,0,1,8.25,1.51,16.8,16.8,0,0,1,5.94,4.24,17.93,17.93,0,0,1,3.63,6.55A28.06,28.06,0,0,1,444,78.68,26.85,26.85,0,0,1,442.76,87.23Z"/><path d="M539.55,36.26V74.68L484.4,32v89.09h25.45V82.69L565,125.35V36.26Z"/><path d="M582,36.26v84.85h25.46V36.26Zm18.43,0V57.47h42.79V36.26Zm0,30.91V87.78h40.36V67.17Zm0,32.73v21.21h42.79V99.9Z"/><path d="M685.78,68.74a16.15,16.15,0,0,1,4-4.84,21,21,0,0,1,6.91-3.7,27.19,27.19,0,0,1,8.42-1.27,31.9,31.9,0,0,1,10.43,1.51,29.69,29.69,0,0,1,7.7,3.94,59.13,59.13,0,0,1,6,5V42a50.4,50.4,0,0,0-10.85-5.82q-5.88-2.31-15.21-2.3A61.16,61.16,0,0,0,683.06,37a43.45,43.45,0,0,0-15.51,9.09,40.28,40.28,0,0,0-8.33,10.81c-.58,1.09-1.12,2.21-1.61,3.37a44.32,44.32,0,0,0-3.34,13.92,12,12,0,1,1,0,8.54,44.42,44.42,0,0,0,3.38,14.39c.43,1,.89,2,1.38,2.93a40.29,40.29,0,0,0,8.56,11.25,43.45,43.45,0,0,0,15.51,9.09,61.16,61.16,0,0,0,20.13,3.15q9.33,0,15.21-2.36a56.63,56.63,0,0,0,10.85-5.76V88a55.11,55.11,0,0,1-6,4.91,32.39,32.39,0,0,1-7.7,3.94,30.78,30.78,0,0,1-10.43,1.57,27.19,27.19,0,0,1-8.42-1.27,21,21,0,0,1-6.91-3.7,16.2,16.2,0,0,1-4.1-5q-.3-.56-.57-1.14a20.7,20.7,0,0,1-1.69-8.61A20.59,20.59,0,0,1,685.12,70,14,14,0,0,1,685.78,68.74Z"/><path d="M732.88,36.26V59.9h24.24v61.21h26.67V59.9H808V36.26Z"/><path d="M853.59,91.05a12.06,12.06,0,0,1-10.09,5.48,12,12,0,0,1-8.45-3.46l-1.64-2H821V110.2h44.85V91.05ZM843.19,30.2l-47.88,90.91h30.3l6-10.91,2.81-5.13.44-.81-2.06-6.06,2.29-5.13-1.64-2a12,12,0,1,1,20.18,0,11.83,11.83,0,0,1-2.09,2.43l2.11,4.72-1.82,6.91.14.25,2.71,4.84,6.12,10.91h30.31Z"/><path d="M898.94,36.26v84.85H926.7V36.26Zm77.4,24.61A35.57,35.57,0,0,0,967,47.53a42.05,42.05,0,0,0-14.84-8.36,62.76,62.76,0,0,0-19.88-2.91H917.37v23h13.7a42.89,42.89,0,0,1,7.15.61,17.57,17.57,0,0,1,6.66,2.54,13.9,13.9,0,0,1,4.91,5.82q1.88,3.88,1.88,10.42t-1.88,10.43a13.78,13.78,0,0,1-4.91,5.82,17.57,17.57,0,0,1-6.66,2.54,42.89,42.89,0,0,1-7.15.61h-13.7v23h14.91a62.76,62.76,0,0,0,19.88-2.91A42.05,42.05,0,0,0,967,109.84a35.57,35.57,0,0,0,9.34-13.34,46.86,46.86,0,0,0,3.21-17.82A46.84,46.84,0,0,0,976.34,60.87Z"/><path d="M1077.85,60.26a41,41,0,0,0-9.93-14.18,43.72,43.72,0,0,0-12.6-8.12c-.8-.34-1.61-.67-2.44-1a54.23,54.23,0,0,0-18.78-3.15A53.57,53.57,0,0,0,1015.55,37c-.59.22-1.17.44-1.75.68a43.86,43.86,0,0,0-13.28,8.41,42.39,42.39,0,0,0-10.06,14.18,45.26,45.26,0,0,0-3.64,18.42,48.64,48.64,0,0,0,3.46,18.61A42.75,42.75,0,0,0,1015,121.41a56.23,56.23,0,0,0,38.18,0,42.75,42.75,0,0,0,24.73-24.12,48.64,48.64,0,0,0,3.45-18.61A46.43,46.43,0,0,0,1077.85,60.26Zm-26,27a18,18,0,0,1-3.75,6.55,17.4,17.4,0,0,1-6,4.24,21.95,21.95,0,0,1-16,0,17.21,17.21,0,0,1-6-4.24,18,18,0,0,1-3.76-6.55,29.38,29.38,0,0,1,0-17.09A17.92,17.92,0,0,1,1020,63.7a.87.87,0,0,1,.09-.11,17.21,17.21,0,0,1,6-4.24,18.55,18.55,0,0,1,5-1.32,12,12,0,1,1,6.66.06,18.11,18.11,0,0,1,4.62,1.26,16.8,16.8,0,0,1,5.94,4.24c.12.13.23.27.35.41a18,18,0,0,1,3.29,6.14,28.37,28.37,0,0,1,1.21,8.54A26.85,26.85,0,0,1,1051.85,87.23Z"/><rect x="420" y="107" width="12" height="36" rx="6" ry="6"/><rect x="1029" y="10" width="12" height="36" rx="6" ry="6"/><rect x="24" y="61" width="12" height="36" rx="6" ry="6" transform="translate(109 49) rotate(90)"/><path d="M166.16,36.26v84.85H140.7V36.26Zm-7,0h42.78V57.47H159.13Zm0,30.91h40.36V87.78H159.13Zm0,32.73h42.78v21.21H159.13Z"/></svg>